<?xml version="1.0" encoding="UTF-8"?>
<svg width="142px" height="40px" viewBox="0 0 254 71" version="1.1" xmlns="http://www.w3.org/2000/svg" xmlns:xlink="http://www.w3.org/1999/xlink">
    <!-- Generator: Sketch 60 (88103) - https://sketch.com -->
    <title>Group</title>
    <desc>Created with Sketch.</desc>
    <g id="Symbols" stroke="none" stroke-width="1" fill="none" fill-rule="evenodd">
        <g id="🎨/Logo/AlibraOnline/White/blue" fill="#FEFEFE">
            <g id="Group" transform="translate(0.000196, 0.000151)">
                <path d="M159.949165,0.00120851064 L159.949165,34.7474 L151.260562,34.7474 L151.260562,0.00120851064 L159.949165,0.00120851064 Z M107.708129,3.55271368e-15 L119.775383,34.7461915 L110.837288,34.7461915 L108.65349,27.4573617 L97.5781879,27.4573617 L95.4439867,34.7461915 L86.5043891,34.7461915 L98.5716435,3.55271368e-15 L107.708129,3.55271368e-15 Z M132.537606,3.55271368e-15 L132.537606,27.4558511 L144.583819,27.4558511 L147.041156,34.7461915 L123.847499,34.7461915 L123.847499,3.55271368e-15 L132.537606,3.55271368e-15 Z M177.479223,0.000755319149 C184.582206,0.000755319149 189.547981,3.11115957 189.547981,9.08875532 C189.547981,12.0042872 188.106644,14.9681596 185.426868,16.474266 L185.426868,16.5709468 C189.498383,17.7855 190.987815,21.3339894 190.987815,24.3960532 C190.987815,31.9764362 184.532608,34.7469468 177.479223,34.7469468 L164.420016,34.7469468 L164.420016,0.000755319149 L177.479223,0.000755319149 Z M212.640188,34.7461915 L206.332271,23.0342128 L202.260756,23.0342128 L202.260756,34.7461915 L193.570649,34.7461915 L193.570649,3.55271368e-15 L205.93549,3.55271368e-15 C209.560626,3.55271368e-15 211.298046,0.243212766 212.837075,0.826319149 C216.860496,2.33242553 219.392981,5.88091489 219.392981,10.934 C219.392981,14.6275106 217.605963,18.6609149 214.080022,20.410234 L214.080022,20.5069149 C214.080022,20.5069149 214.575999,21.1398723 215.420661,22.5976383 L220.812389,32.086 L231.956212,3.55271368e-15 L241.092697,3.55271368e-15 L253.161454,34.7461915 L244.221857,34.7461915 L242.038058,27.4573617 L230.962756,27.4573617 L228.828555,34.7461915 L212.640188,34.7461915 Z M178.371981,20.2644574 L173.10862,20.2644574 L173.10862,27.4566064 L178.325389,27.4566064 C180.857874,27.4566064 182.099318,25.7571383 182.099318,23.8129468 C182.099318,21.8672447 180.907472,20.2644574 178.371981,20.2644574 Z M103.188732,7.9202766 L103.09104,7.9202766 C103.09104,7.9202766 102.295975,11.7119787 101.651206,13.899383 L99.6131938,20.6534468 L106.616981,20.6534468 L104.628567,13.899383 C103.9853,11.7119787 103.188732,7.9202766 103.188732,7.9202766 Z M236.574803,7.9202766 L236.475608,7.9202766 C236.475608,7.9202766 235.682046,11.7119787 235.035774,13.899383 L232.999265,20.6534468 L240.003052,20.6534468 L238.014638,13.899383 C237.371371,11.7119787 236.574803,7.9202766 236.574803,7.9202766 Z M205.188519,7.29034043 L202.260756,7.29034043 L202.260756,15.745383 L206.034685,15.745383 C208.815158,15.745383 210.554081,14.2392766 210.554081,11.468766 C210.554081,9.71944681 210.107703,8.40821277 208.467975,7.77525532 C207.67291,7.4353617 206.629857,7.29034043 205.188519,7.29034043 Z M177.429626,7.28958511 L173.10862,7.28958511 L173.10862,13.4605426 L177.579922,13.4605426 C179.765223,13.4605426 180.709081,11.9060957 180.709081,10.2534574 C180.709081,8.65067021 179.765223,7.28958511 177.429626,7.28958511 Z" id="Combined-Shape"></path>
                <path d="M96.730369,40.8351213 C99.4973157,40.8351213 102.515257,41.7792702 104.526215,43.6237596 L103.102913,46.0045255 C101.508274,44.5271213 98.9517417,43.5421851 96.6041204,43.5421851 C93.2510198,43.5421851 90.4449962,45.3473979 90.4449962,48.3822702 C90.4449962,55.3145894 105.115375,53.4685894 105.115375,62.7393766 C105.115375,67.1685681 101.802854,70.6551213 96.1036352,70.6551213 C92.7084518,70.6551213 89.2711855,69.3423766 86.8378956,66.9631213 L88.5572802,64.7893128 C90.4029133,66.5537383 93.2510198,67.9480574 96.1862979,67.9480574 C99.6656471,67.9480574 102.138014,66.0189723 102.138014,63.0248872 C102.138014,55.7647596 87.4676352,57.4883979 87.4676352,48.5469298 C87.4676352,43.8292064 91.5331382,40.8351213 96.730369,40.8351213 Z M122.048007,40.8360277 C125.776847,40.8360277 129.885936,41.9433255 132.693462,44.5688149 L131.143912,46.6595383 C128.838374,44.6911766 125.316942,43.5023043 122.132173,43.5023043 C114.96306,43.5023043 110.26932,48.753283 110.26932,55.5209426 C110.26932,62.368666 114.96306,67.9897511 122.256918,67.9897511 C125.734764,67.9897511 129.256196,66.5954319 131.772149,64.1738787 L133.449451,66.1845383 C130.974078,68.562283 127.371486,70.654517 122.174255,70.654517 C113.201593,70.654517 107.25138,63.9684319 107.25138,55.5602191 C107.25138,47.1943043 113.41351,40.8360277 122.048007,40.8360277 Z M180.055745,40.8360277 C188.690242,40.8360277 195.061284,47.2758787 195.061284,55.5209426 C195.061284,64.0107298 188.690242,70.654517 180.055745,70.654517 C171.463331,70.654517 165.05171,64.0107298 165.05171,55.5209426 C165.05171,47.2758787 171.463331,40.8360277 180.055745,40.8360277 Z M214.635516,40.8360277 C223.270013,40.8360277 229.641054,47.2758787 229.641054,55.5209426 C229.641054,64.0107298 223.270013,70.654517 214.635516,70.654517 C206.043101,70.654517 199.63148,64.0107298 199.63148,55.5209426 C199.63148,47.2758787 206.043101,40.8360277 214.635516,40.8360277 Z M139.860621,41.3280426 L139.860621,54.4524681 L156.919201,54.4524681 L156.919201,41.3280426 L159.854479,41.3280426 L159.854479,70.1631064 L156.919201,70.1631064 L156.919201,56.996383 L139.860621,56.996383 L139.860621,70.1631064 L136.968929,70.1631064 L136.968929,41.3280426 L139.860621,41.3280426 Z M239.072119,41.3280426 L239.072119,67.6191915 L252.735516,67.6191915 L252.735516,70.1631064 L236.180427,70.1631064 L236.180427,41.3280426 L239.072119,41.3280426 Z M180.055745,43.5007936 C173.184219,43.5007936 168.068148,48.7109851 168.068148,55.5209426 C168.068148,62.5756234 173.184219,67.9897511 180.055745,67.9897511 C186.973864,67.9897511 192.044846,62.5756234 192.044846,55.5209426 C192.044846,48.7109851 186.973864,43.5007936 180.055745,43.5007936 Z M214.635516,43.5007936 C207.762486,43.5007936 202.647918,48.7109851 202.647918,55.5209426 C202.647918,62.5756234 207.762486,67.9897511 214.635516,67.9897511 C221.553634,67.9897511 226.624616,62.5756234 226.624616,55.5209426 C226.624616,48.7109851 221.553634,43.5007936 214.635516,43.5007936 Z" id="Combined-Shape"></path>
                <path d="M68.1537157,17.2585894 C69.1456684,19.5502277 68.5865678,21.9581851 66.1968636,22.9159298 L55.9823405,27.0055405 L55.9823405,39.2309255 L67.0111666,45.5096404 C69.2649414,46.7852412 69.5832501,49.2633479 68.3453737,51.453615 L68.228563,51.6518957 C66.901097,53.8189508 64.5117439,54.8475387 62.2601862,53.7003567 L62.0559121,53.5900447 L50.3173405,46.9129255 L39.0033405,50.8419255 L39.0036837,65.9790915 C39.0036837,68.6529213 36.7477429,70.249666 33.9642636,70.249666 C31.1852932,70.249666 28.9233405,68.6529213 28.9233405,65.9790915 L28.9233405,51.4269119 L33.0939003,52.8705765 L33.0939003,33.8904149 L55.9818553,25.9397745 L44.7477903,21.7848526 L62.6123074,14.6013766 C64.986982,13.6466532 67.161763,14.9578872 68.1537157,17.2585894 Z M23.920292,37.6366468 C24.9122447,39.9358383 24.3411204,42.3453064 21.9664459,43.307583 L6.05011451,49.7006043 C3.66191333,50.6523064 1.44805534,49.3637319 0.462114513,47.0584979 C-0.538855902,44.7729021 0.0698423232,42.3453064 2.44902576,41.3951149 L18.3638542,34.9930298 C20.7430376,34.0337745 22.9268364,35.3480298 23.920292,37.6366468 Z M33.9642636,0.0015106383 C36.7477429,0.0015106383 39.0036837,1.54840426 39.0036837,4.2207234 L39.0036837,22.0009362 C39.0036837,24.6898723 36.7477429,26.2805745 33.9642636,26.2805745 C31.1852932,26.2805745 28.9233405,24.6898723 28.9233405,22.0009362 L28.9233405,4.2207234 C28.9233405,1.54840426 31.1852932,0.0015106383 33.9642636,0.0015106383 Z M2.51891333,16.3866489 C3.86556422,14.1750745 6.27330386,13.1357553 8.56681865,14.4333936 L8.56681865,14.4333936 L21.450752,21.7585259 L9.92480294,25.7479234 L9.92480294,25.9721846 L3.67318552,22.4216489 C1.38568256,21.1240106 1.16474765,18.5921809 2.51891333,16.3866489 Z" id="Combined-Shape"></path>
            </g>
        </g>
    </g>
</svg>